# This file uses centimeters as units for non-parametric coordinates.

mtllib snowflake.mtl
g default
v -0.873228 -0.925966 0.207152
v -1.146363 -0.930739 0.207152
v -0.564962 -0.615332 0.207152
v -0.623837 -0.159742 0.207152
v -0.464287 -0.513884 0.207152
v 0.021022 -1.004804 0.207152
v 0.021022 -1.275586 0.207152
v 0.021022 -0.294644 0.207152
v 0.021022 -0.861350 0.207152
v 0.021022 0.165985 0.207152
v 0.021022 0.663717 0.207152
v 0.021022 0.803575 0.207152
v 0.021022 1.109613 0.207152
v 0.021022 1.249470 0.207152
v 0.021022 1.523609 0.207152
v -0.835686 -0.620062 0.207152
v -0.894784 -0.430721 0.207152
v -0.965929 -0.359576 0.207152
v -0.766118 -0.159742 0.207152
v -1.086151 -0.159742 0.207152
v -1.354034 -0.437142 0.207152
v -1.426421 -0.367274 0.207152
v -1.226008 -0.159742 0.207152
v -0.837413 -0.520403 0.207152
v -1.148089 -0.831080 0.207152
v -0.772554 -0.824518 0.207152
v -1.065484 -1.119699 0.207152
v -0.112846 -0.159742 0.207152
v -0.931617 -1.254602 0.207152
v 0.210397 -1.652269 0.207152
v 0.021022 -1.652269 0.207152
v 1.458097 -0.159742 0.207152
v 1.641099 -0.342765 0.207152
v 1.570645 -0.413220 0.207152
v 1.317167 -0.159742 0.207152
v 1.009342 -0.159742 0.207152
v 1.192344 -0.342765 0.207152
v 0.706852 -0.525114 0.207152
v 1.102834 -0.518194 0.207152
v 1.014612 -0.835239 0.207152
v 1.378992 -0.828871 0.207152
v 1.380752 -0.929496 0.207152
v 1.112798 -0.934179 0.207152
v 1.104595 -0.618819 0.207152
v 0.805037 -0.624054 0.207152
v 1.121889 -0.413220 0.207152
v 0.868411 -0.159742 0.207152
v 0.344266 -0.159742 0.207152
v 1.296904 -1.119699 0.207152
v 0.964706 -1.054748 0.207152
v 0.969933 -1.353915 0.207152
v 0.870275 -1.355641 0.207152
v 0.863231 -0.952493 0.207152
v 0.689125 -0.777050 0.207152
v 0.693776 -1.043238 0.207152
v 0.210397 -0.853508 0.207152
v 0.488833 -1.122392 0.207152
v 0.210397 -1.267744 0.207152
v 0.488833 -1.536628 0.207152
v 0.418931 -1.609015 0.207152
v 0.210397 -1.407612 0.207152
v 0.418931 -1.194779 0.207152
v 0.210397 -0.993377 0.207152
v 0.594118 -1.044964 0.207152
v 0.587650 -0.674795 0.207152
v 1.163037 -1.254602 0.207152
v 0.210397 -0.294644 0.207152
v 1.691498 -0.159742 0.207152
v 1.691498 0.031083 0.207152
v 0.210397 1.291546 0.207152
v 0.387794 1.475247 0.207152
v 0.210397 0.811133 0.207152
v 0.210397 0.667653 0.207152
v 0.405054 1.012684 0.207152
v 0.476751 0.943472 0.207152
v 0.459491 1.406035 0.207152
v 0.210397 1.148089 0.207152
v 0.586800 0.545279 0.207152
v 0.586800 0.902255 0.207152
v 0.897477 0.858343 0.207152
v 0.897477 1.247452 0.207152
v 0.998136 1.247452 0.207152
v 0.998136 0.959776 0.207152
v 0.687459 0.902255 0.207152
v 0.687459 0.646712 0.207152
v 0.210397 0.165985 0.207152
v 1.163037 1.125943 0.207152
v 1.136378 0.829281 0.207152
v 1.415306 0.829281 0.207152
v 1.415306 0.729588 0.207152
v 1.037445 0.729588 0.207152
v 0.793813 0.484084 0.207152
v 1.104629 0.484084 0.207152
v 0.833891 0.031083 0.207152
v 1.121889 0.319080 0.207152
v 1.282647 0.031083 0.207152
v 1.570645 0.319080 0.207152
v 1.641824 0.247935 0.207152
v 1.424946 0.031083 0.207152
v 1.193069 0.247935 0.207152
v 0.976191 0.031083 0.207152
v 1.104629 0.384392 0.207152
v 0.694881 0.384392 0.207152
v 1.296904 0.991040 0.207152
v 0.344266 0.031083 0.207152
v -0.171701 -1.618612 0.207152
v 0.021022 -1.419040 0.207152
v -0.243364 -1.549400 0.207152
v -0.171701 -1.204376 0.207152
v -0.317517 -0.635784 0.207152
v -0.310642 -1.029154 0.207152
v -0.411267 -1.030880 0.207152
v -0.416430 -0.735458 0.207152
v -0.628153 -0.948807 0.207152
v -0.621319 -1.339831 0.207152
v -0.721944 -1.341557 0.207152
v -0.727066 -1.048480 0.207152
v -0.243364 -1.135164 0.207152
v -1.460078 -0.159742 0.207152
v -0.760937 0.953952 0.207152
v -0.765991 1.243241 0.207152
v -0.447431 0.638037 0.207152
v -0.345956 0.535782 0.207152
v -0.452173 0.909470 0.207152
v -0.255446 0.930700 0.207152
v -0.185578 1.003087 0.207152
v -0.272705 1.393263 0.207152
v -0.202838 1.465651 0.207152
v -0.352515 0.911196 0.207152
v -0.666333 1.244967 0.207152
v -0.659462 0.851697 0.207152
v -0.931617 1.125943 0.207152
v -1.065484 0.991040 0.207152
v -1.236910 0.031083 0.207152
v -1.436018 0.223357 0.207152
v -0.765186 0.031083 0.207152
v -0.624254 0.031083 0.207152
v -0.965239 0.231159 0.207152
v -0.894784 0.301613 0.207152
v -1.366806 0.295055 0.207152
v -1.093453 0.031083 0.207152
v -0.470244 0.391227 0.207152
v -0.861231 0.384426 0.207152
v -0.862992 0.485051 0.207152
v -0.568437 0.490174 0.207152
v -0.801174 0.724700 0.207152
v -1.175049 0.718197 0.207152
v -1.176810 0.818821 0.207152
v -0.899367 0.823647 0.207152
v -0.112846 0.031083 0.207152
v -1.460078 0.031083 0.207152
v 0.210397 1.523609 0.207152
vn 0.963421 0.088421 0.252985
vn 0.963421 0.088421 0.252985
vn 0.963421 0.088421 0.252985
vn 0.000000 -1.000000 0.000000
vn 0.000000 -1.000000 0.000000
vn 0.000000 -1.000000 0.000000
vn 0.000000 -1.000000 0.000000
vn 0.000000 -1.000000 0.000000
vn 0.000000 -1.000000 0.000000
vn 0.000000 -1.000000 0.000000
vn 0.000000 -1.000000 0.000000
vn 0.000000 -1.000000 0.000000
vn 0.000000 -1.000000 0.000000
vn 0.000000 -1.000000 0.000000
vn 0.000000 -1.000000 0.000000
vn 0.000000 -1.000000 0.000000
vn 0.000000 -1.000000 0.000000
vn 0.000000 -1.000000 0.000000
vn 0.000000 -1.000000 0.000000
vn 0.000000 -1.000000 0.000000
vn 0.000000 -1.000000 0.000000
vn -0.707107 -0.707107 0.000000
vn -0.707107 -0.707107 0.000000
vn -0.707107 -0.707107 0.000000
vn -0.412791 -0.316527 0.854057
vn -0.412791 -0.316527 0.854057
vn -0.412791 -0.316527 0.854057
vn -0.469622 -0.233999 0.851293
vn -0.469622 -0.233999 0.851293
vn -0.469622 -0.233999 0.851293
vn -0.767626 -0.587323 -0.256520
vn -0.767626 -0.587323 -0.256520
vn -0.767626 -0.587323 -0.256520
vn -0.717706 -0.549869 -0.427250
vn -0.717706 -0.549869 -0.427250
vn -0.717706 -0.549869 -0.427250
vn -0.400281 0.697042 -0.594901
vn -0.400281 0.697042 -0.594901
vn -0.400281 0.697042 -0.594901
vn 0.787301 -0.222313 0.575095
vn 0.787301 -0.222313 0.575095
vn 0.787301 -0.222313 0.575095
vn 0.959072 -0.270317 0.084323
vn 0.959072 -0.270317 0.084323
vn 0.959072 -0.270317 0.084323
vn 0.931246 -0.262475 0.252762
vn 0.931246 -0.262475 0.252762
vn 0.931246 -0.262475 0.252762
vn 0.508425 -0.143965 -0.848986
vn 0.508425 -0.143965 -0.848986
vn 0.508425 -0.143965 -0.848986
vn 0.318566 -0.090386 -0.943582
vn 0.318566 -0.090386 -0.943582
vn 0.318566 -0.090386 -0.943582
vn 0.000000 0.000000 1.000000
vn 0.000000 0.000000 1.000000
vn 0.000000 0.000000 1.000000
vn 0.000000 0.000000 1.000000
vn 0.000000 0.000000 1.000000
vn 0.000000 0.000000 1.000000
vn -0.000000 0.000000 1.000000
vn -0.000000 0.000000 1.000000
vn -0.000000 0.000000 1.000000
vn -0.000000 0.000000 1.000000
vn -0.000000 0.000000 1.000000
vn -0.000000 0.000000 1.000000
vn -0.000000 0.000000 1.000000
vn -0.000000 0.000000 1.000000
vn -0.000000 0.000000 1.000000
vn -0.000000 0.000000 1.000000
vn -0.000000 0.000000 1.000000
vn -0.000000 0.000000 1.000000
vn 0.000000 0.000000 1.000000
vn 0.000000 0.000000 1.000000
vn 0.000000 0.000000 1.000000
vn 0.000000 0.000000 1.000000
vn 0.000000 0.000000 1.000000
vn 0.000000 0.000000 1.000000
vn -0.000000 0.000000 1.000000
vn -0.000000 0.000000 1.000000
vn -0.000000 0.000000 1.000000
vn 0.000000 0.000000 1.000000
vn 0.000000 0.000000 1.000000
vn 0.000000 0.000000 1.000000
vn 0.000000 0.000000 1.000000
vn 0.000000 0.000000 1.000000
vn 0.000000 0.000000 1.000000
vn 0.000000 0.000000 1.000000
vn 0.000000 0.000000 1.000000
vn 0.000000 0.000000 1.000000
vn 0.000000 0.000000 1.000000
vn 0.000000 0.000000 1.000000
vn 0.000000 0.000000 1.000000
vn -0.000000 0.000000 1.000000
vn -0.000000 0.000000 1.000000
vn -0.000000 0.000000 1.000000
vn 0.000000 0.000000 1.000000
vn 0.000000 0.000000 1.000000
vn 0.000000 0.000000 1.000000
vn -0.000000 0.000000 1.000000
vn -0.000000 0.000000 1.000000
vn -0.000000 0.000000 1.000000
vn 0.000000 0.000000 1.000000
vn 0.000000 0.000000 1.000000
vn 0.000000 0.000000 1.000000
vn -0.000000 0.000000 1.000000
vn -0.000000 0.000000 1.000000
vn -0.000000 0.000000 1.000000
vn 0.000000 0.000000 1.000000
vn 0.000000 0.000000 1.000000
vn 0.000000 0.000000 1.000000
vn 0.000000 0.000000 1.000000
vn 0.000000 0.000000 1.000000
vn 0.000000 0.000000 1.000000
vn 0.000000 0.000000 1.000000
vn 0.000000 0.000000 1.000000
vn 0.000000 0.000000 1.000000
vn 0.000000 0.000000 1.000000
vn 0.000000 0.000000 1.000000
vn 0.000000 0.000000 1.000000
vn 0.000000 0.000000 1.000000
vn 0.000000 0.000000 1.000000
vn 0.000000 0.000000 1.000000
vn 0.000000 0.000000 1.000000
vn 0.000000 0.000000 1.000000
vn 0.000000 0.000000 1.000000
vn 0.000000 0.000000 1.000000
vn 0.000000 0.000000 1.000000
vn 0.000000 0.000000 1.000000
vn 0.000000 0.000000 1.000000
vn 0.000000 0.000000 1.000000
vn 0.000000 0.000000 1.000000
vn 0.000000 0.000000 1.000000
vn 0.000000 0.000000 1.000000
vn 0.000000 0.000000 1.000000
vn -0.000000 0.000000 1.000000
vn -0.000000 0.000000 1.000000
vn -0.000000 0.000000 1.000000
vn 0.000000 0.000000 1.000000
vn 0.000000 0.000000 1.000000
vn 0.000000 0.000000 1.000000
vn -0.000000 0.000000 1.000000
vn -0.000000 0.000000 1.000000
vn -0.000000 0.000000 1.000000
vn 0.000000 0.000000 1.000000
vn 0.000000 0.000000 1.000000
vn 0.000000 0.000000 1.000000
vn 0.000000 0.000000 1.000000
vn 0.000000 0.000000 1.000000
vn 0.000000 0.000000 1.000000
vn 0.000000 0.000000 1.000000
vn 0.000000 0.000000 1.000000
vn 0.000000 0.000000 1.000000
vn 0.000000 0.000000 1.000000
vn 0.000000 0.000000 1.000000
vn 0.000000 0.000000 1.000000
vn -0.000000 0.000000 1.000000
vn -0.000000 0.000000 1.000000
vn -0.000000 0.000000 1.000000
vn 0.000000 0.000000 1.000000
vn 0.000000 0.000000 1.000000
vn 0.000000 0.000000 1.000000
vn -0.000000 0.000000 1.000000
vn -0.000000 0.000000 1.000000
vn -0.000000 0.000000 1.000000
vn 0.000000 0.000000 1.000000
vn 0.000000 0.000000 1.000000
vn 0.000000 0.000000 1.000000
vn 0.000000 0.000000 1.000000
vn 0.000000 0.000000 1.000000
vn 0.000000 0.000000 1.000000
vn 0.000000 0.000000 1.000000
vn 0.000000 0.000000 1.000000
vn 0.000000 0.000000 1.000000
vn 0.000000 0.000000 1.000000
vn 0.000000 0.000000 1.000000
vn 0.000000 0.000000 1.000000
vn 0.000000 0.000000 1.000000
vn 0.000000 0.000000 1.000000
vn 0.000000 0.000000 1.000000
vn 0.000000 0.000000 1.000000
vn 0.000000 0.000000 1.000000
vn 0.000000 0.000000 1.000000
vn 0.000000 0.000000 1.000000
vn 0.000000 0.000000 1.000000
vn 0.000000 0.000000 1.000000
vn 0.000000 0.000000 1.000000
vn 0.000000 0.000000 1.000000
vn 0.000000 0.000000 1.000000
vn 0.000000 0.000000 1.000000
vn 0.000000 0.000000 1.000000
vn 0.000000 0.000000 1.000000
vn 0.000000 0.000000 1.000000
vn 0.000000 0.000000 1.000000
vn 0.000000 0.000000 1.000000
vn 0.000000 0.000000 1.000000
vn 0.000000 0.000000 1.000000
vn 0.000000 0.000000 1.000000
vn 0.000000 0.000000 1.000000
vn 0.000000 0.000000 1.000000
vn 0.000000 0.000000 1.000000
vn 0.000000 0.000000 1.000000
vn 0.000000 0.000000 1.000000
vn 0.000000 0.000000 1.000000
vn 0.000000 0.000000 1.000000
vn 0.000000 0.000000 1.000000
vn 0.000000 0.000000 1.000000
vn 0.000000 0.000000 1.000000
vn 0.000000 0.000000 1.000000
vn 0.000000 0.000000 1.000000
vn 0.000000 0.000000 1.000000
vn 0.000000 0.000000 1.000000
vn 0.000000 0.000000 1.000000
vn 0.000000 0.000000 1.000000
vn 0.000000 0.000000 1.000000
vn 0.000000 0.000000 1.000000
vn -0.000000 0.000000 1.000000
vn -0.000000 0.000000 1.000000
vn -0.000000 0.000000 1.000000
vn 0.000000 0.000000 1.000000
vn 0.000000 0.000000 1.000000
vn 0.000000 0.000000 1.000000
vn 0.000000 0.000000 1.000000
vn 0.000000 0.000000 1.000000
vn 0.000000 0.000000 1.000000
vn 0.000000 0.000000 1.000000
vn 0.000000 0.000000 1.000000
vn 0.000000 0.000000 1.000000
vn -0.000000 0.000000 1.000000
vn -0.000000 0.000000 1.000000
vn -0.000000 0.000000 1.000000
vn -0.000000 0.000000 1.000000
vn -0.000000 0.000000 1.000000
vn -0.000000 0.000000 1.000000
vn 0.000000 0.000000 1.000000
vn 0.000000 0.000000 1.000000
vn 0.000000 0.000000 1.000000
vn 0.000000 0.000000 1.000000
vn 0.000000 0.000000 1.000000
vn 0.000000 0.000000 1.000000
vn -0.000000 0.000000 1.000000
vn -0.000000 0.000000 1.000000
vn -0.000000 0.000000 1.000000
vn 0.000000 0.000000 1.000000
vn 0.000000 0.000000 1.000000
vn 0.000000 0.000000 1.000000
vn 0.000000 0.000000 1.000000
vn 0.000000 0.000000 1.000000
vn 0.000000 0.000000 1.000000
vn -0.000000 0.000000 1.000000
vn -0.000000 0.000000 1.000000
vn -0.000000 0.000000 1.000000
vn 0.000000 0.000000 1.000000
vn 0.000000 0.000000 1.000000
vn 0.000000 0.000000 1.000000
vn 0.000000 0.000000 1.000000
vn 0.000000 0.000000 1.000000
vn 0.000000 0.000000 1.000000
vn 0.000000 0.000000 1.000000
vn 0.000000 0.000000 1.000000
vn 0.000000 0.000000 1.000000
vn 0.000000 0.000000 1.000000
vn 0.000000 0.000000 1.000000
vn 0.000000 0.000000 1.000000
vn 0.000000 0.000000 1.000000
vn 0.000000 0.000000 1.000000
vn 0.000000 0.000000 1.000000
vn 0.000000 0.000000 1.000000
vn 0.000000 0.000000 1.000000
vn 0.000000 0.000000 1.000000
vn 0.000000 0.000000 1.000000
vn 0.000000 0.000000 1.000000
vn 0.000000 0.000000 1.000000
vn 0.000000 0.000000 1.000000
vn 0.000000 0.000000 1.000000
vn 0.000000 0.000000 1.000000
vn -0.000000 0.000000 1.000000
vn -0.000000 0.000000 1.000000
vn -0.000000 0.000000 1.000000
vn 0.000000 0.000000 1.000000
vn 0.000000 0.000000 1.000000
vn 0.000000 0.000000 1.000000
vn -0.000000 0.000000 1.000000
vn -0.000000 0.000000 1.000000
vn -0.000000 0.000000 1.000000
vn 0.000000 0.000000 1.000000
vn 0.000000 0.000000 1.000000
vn 0.000000 0.000000 1.000000
vn 0.000000 0.000000 1.000000
vn 0.000000 0.000000 1.000000
vn 0.000000 0.000000 1.000000
vn 0.000000 0.000000 1.000000
vn 0.000000 0.000000 1.000000
vn 0.000000 0.000000 1.000000
vn 0.000000 0.000000 1.000000
vn 0.000000 0.000000 1.000000
vn 0.000000 0.000000 1.000000
vn 0.000000 0.000000 1.000000
vn 0.000000 0.000000 1.000000
vn 0.000000 0.000000 1.000000
vn 0.000000 0.000000 1.000000
vn 0.000000 0.000000 1.000000
vn 0.000000 0.000000 1.000000
vn 0.000000 0.000000 1.000000
vn 0.000000 0.000000 1.000000
vn 0.000000 0.000000 1.000000
vn 0.000000 0.000000 1.000000
vn 0.000000 0.000000 1.000000
vn 0.000000 0.000000 1.000000
vn 0.000000 0.000000 1.000000
vn 0.000000 0.000000 1.000000
vn 0.000000 0.000000 1.000000
vn -0.000000 0.000000 1.000000
vn -0.000000 0.000000 1.000000
vn -0.000000 0.000000 1.000000
vn 0.000000 0.000000 1.000000
vn 0.000000 0.000000 1.000000
vn 0.000000 0.000000 1.000000
vn -0.000000 0.000000 1.000000
vn -0.000000 0.000000 1.000000
vn -0.000000 0.000000 1.000000
vn 0.000000 0.000000 1.000000
vn 0.000000 0.000000 1.000000
vn 0.000000 0.000000 1.000000
vn 0.000000 0.000000 1.000000
vn 0.000000 0.000000 1.000000
vn 0.000000 0.000000 1.000000
vn -0.000000 0.000000 1.000000
vn -0.000000 0.000000 1.000000
vn -0.000000 0.000000 1.000000
vn 0.000000 0.000000 1.000000
vn 0.000000 0.000000 1.000000
vn 0.000000 0.000000 1.000000
vn 0.000000 0.000000 1.000000
vn 0.000000 0.000000 1.000000
vn 0.000000 0.000000 1.000000
vn 0.000000 0.000000 1.000000
vn 0.000000 0.000000 1.000000
vn 0.000000 0.000000 1.000000
vn 0.000000 0.000000 1.000000
vn 0.000000 0.000000 1.000000
vn 0.000000 0.000000 1.000000
vn 0.000000 0.000000 1.000000
vn 0.000000 0.000000 1.000000
vn 0.000000 0.000000 1.000000
vn 0.000000 0.000000 1.000000
vn 0.000000 0.000000 1.000000
vn 0.000000 0.000000 1.000000
vn 0.000000 0.000000 1.000000
vn 0.000000 0.000000 1.000000
vn 0.000000 0.000000 1.000000
vn 0.000000 0.000000 1.000000
vn 0.000000 0.000000 1.000000
vn 0.000000 0.000000 1.000000
vn 0.000000 0.000000 1.000000
vn 0.000000 0.000000 1.000000
vn 0.000000 0.000000 1.000000
vn 0.000000 0.000000 1.000000
vn 0.000000 0.000000 1.000000
vn 0.000000 0.000000 1.000000
vn -0.000000 0.000000 1.000000
vn -0.000000 0.000000 1.000000
vn -0.000000 0.000000 1.000000
vn 0.000000 0.000000 1.000000
vn 0.000000 0.000000 1.000000
vn 0.000000 0.000000 1.000000
vn 0.000000 0.000000 1.000000
vn 0.000000 0.000000 1.000000
vn 0.000000 0.000000 1.000000
vn 0.000000 0.000000 1.000000
vn 0.000000 0.000000 1.000000
vn 0.000000 0.000000 1.000000
vn 0.000000 0.000000 1.000000
vn 0.000000 0.000000 1.000000
vn 0.000000 0.000000 1.000000
vn 0.000000 0.000000 1.000000
vn 0.000000 0.000000 1.000000
vn 0.000000 0.000000 1.000000
vn 0.000000 0.000000 1.000000
vn 0.000000 0.000000 1.000000
vn 0.000000 0.000000 1.000000
vn 0.000000 0.000000 1.000000
vn 0.000000 0.000000 1.000000
vn 0.000000 0.000000 1.000000
vn 0.000000 0.000000 1.000000
vn 0.000000 0.000000 1.000000
vn 0.000000 0.000000 1.000000
vn 0.000000 0.000000 1.000000
vn 0.000000 0.000000 1.000000
vn 0.000000 0.000000 1.000000
vn 0.000000 0.000000 1.000000
vn 0.000000 0.000000 1.000000
vn 0.000000 0.000000 1.000000
vn -0.000000 0.000000 1.000000
vn -0.000000 0.000000 1.000000
vn -0.000000 0.000000 1.000000
vn 0.000000 0.000000 1.000000
vn 0.000000 0.000000 1.000000
vn 0.000000 0.000000 1.000000
vn 0.000000 0.000000 1.000000
vn 0.000000 0.000000 1.000000
vn 0.000000 0.000000 1.000000
vn 0.000000 0.000000 1.000000
vn 0.000000 0.000000 1.000000
vn 0.000000 0.000000 1.000000
vn 0.000000 0.000000 1.000000
vn 0.000000 0.000000 1.000000
vn 0.000000 0.000000 1.000000
vn 0.000000 0.000000 1.000000
vn 0.000000 0.000000 1.000000
vn 0.000000 0.000000 1.000000
vn 0.000000 0.000000 1.000000
vn 0.000000 0.000000 1.000000
vn 0.000000 0.000000 1.000000
vn 0.000000 0.000000 1.000000
vn 0.000000 0.000000 1.000000
vn 0.000000 0.000000 1.000000
vn 0.000000 0.000000 1.000000
vn 0.000000 0.000000 1.000000
vn 0.000000 0.000000 1.000000
vn 0.000000 0.000000 1.000000
vn 0.000000 0.000000 1.000000
vn 0.000000 0.000000 1.000000
vn 0.000000 0.000000 1.000000
vn 0.000000 0.000000 1.000000
vn 0.000000 0.000000 1.000000
vn 0.000000 0.000000 1.000000
vn 0.000000 0.000000 1.000000
vn 0.000000 0.000000 1.000000
vn 0.000000 0.000000 1.000000
vn 0.000000 0.000000 1.000000
vn 0.000000 0.000000 1.000000
vn 0.000000 0.000000 1.000000
vn 0.000000 0.000000 1.000000
vn 0.000000 0.000000 1.000000
vn 0.000000 0.000000 1.000000
vn 0.000000 0.000000 1.000000
vn 0.000000 0.000000 1.000000
vn 0.000000 0.000000 1.000000
vn 0.000000 0.000000 1.000000
vn 0.000000 0.000000 1.000000
vn 0.000000 0.000000 1.000000
vn 0.000000 0.000000 1.000000
vn 0.000000 0.000000 1.000000
vn 0.000000 0.000000 1.000000
vn 0.000000 0.000000 1.000000
vn 0.000000 0.000000 1.000000
vn 0.000000 0.000000 1.000000
vn 0.000000 0.000000 1.000000
vn 0.000000 0.000000 1.000000
s off
g snowflake:Mesh
usemtl initialShadingGroup
f 24//1 3//2 5//3
f 4//4 19//5 17//6
f 17//7 19//8 18//9
f 21//10 20//11 23//12
f 21//13 23//14 22//15
f 16//16 3//17 24//18
f 26//19 25//20 1//21
f 2//22 1//23 25//24
f 35//25 34//26 32//27
f 33//28 32//29 34//30
f 41//31 40//32 43//33
f 41//34 43//35 42//36
f 39//37 38//38 45//39
f 39//40 45//41 44//42
f 47//43 46//44 36//45
f 37//46 36//47 46//48
f 53//49 52//50 50//51
f 51//52 50//53 52//54
f 60//55 59//56 61//57
f 58//58 61//59 59//60
f 57//61 56//62 63//63
f 57//64 63//65 62//66
f 65//67 64//68 54//69
f 55//70 54//71 64//72
f 65//73 54//74 45//75
f 45//76 38//77 65//78
f 67//79 65//80 38//81
f 48//82 67//83 38//84
f 40//85 45//86 54//87
f 54//88 53//89 40//90
f 53//91 50//92 40//93
f 43//94 40//95 50//96
f 50//97 66//98 43//99
f 49//100 43//101 66//102
f 73//103 75//104 72//105
f 74//106 72//107 75//108
f 77//109 76//110 70//111
f 71//112 70//113 76//114
f 81//115 80//116 83//117
f 81//118 83//119 82//120
f 78//121 85//122 79//123
f 79//124 85//125 84//126
f 91//127 90//128 88//129
f 89//130 88//131 90//132
f 97//133 96//134 99//135
f 97//136 99//137 98//138
f 95//139 94//140 101//141
f 95//142 101//143 100//144
f 103//145 102//146 92//147
f 93//148 92//149 102//150
f 85//151 78//152 92//153
f 78//154 86//155 103//156
f 105//157 103//158 86//159
f 92//160 91//161 85//162
f 103//163 92//164 78//165
f 80//166 85//167 91//168
f 83//169 80//170 91//171
f 91//172 88//173 83//174
f 87//175 83//176 88//177
f 87//178 88//179 104//180
f 48//181 105//182 10//183
f 101//184 94//185 47//186
f 36//187 35//188 96//189
f 35//190 32//191 99//192
f 69//193 99//194 32//195
f 68//196 69//197 32//198
f 99//199 96//200 35//201
f 96//202 101//203 36//204
f 47//205 36//206 101//207
f 48//208 47//209 94//210
f 94//211 105//212 48//213
f 86//214 10//215 105//216
f 7//217 108//218 107//219
f 106//220 107//221 108//222
f 111//223 110//224 113//225
f 111//226 113//227 112//228
f 115//229 114//230 117//231
f 115//232 117//233 116//234
f 9//235 118//236 6//237
f 109//238 6//239 118//240
f 5//241 110//242 28//243
f 3//244 26//245 114//246
f 26//247 1//248 117//249
f 29//250 117//251 1//252
f 27//253 29//254 1//255
f 117//256 114//257 26//258
f 114//259 113//260 3//261
f 5//262 3//263 113//264
f 113//265 110//266 5//267
f 8//268 28//269 110//270
f 126//271 125//272 12//273
f 123//274 129//275 122//276
f 11//277 12//278 125//279
f 127//280 13//281 14//282
f 127//283 14//284 128//285
f 124//286 122//287 129//288
f 131//289 130//290 120//291
f 121//292 120//293 130//294
f 137//295 139//296 136//297
f 138//298 136//299 139//300
f 141//301 140//302 134//303
f 135//304 134//305 140//306
f 143//307 142//308 145//309
f 143//310 145//311 144//312
f 147//313 146//314 149//315
f 147//316 149//317 148//318
f 123//319 142//320 10//321
f 122//322 131//323 146//324
f 149//325 146//326 120//327
f 120//328 132//329 149//330
f 133//331 149//332 132//333
f 131//334 120//335 146//336
f 146//337 145//338 122//339
f 123//340 122//341 145//342
f 145//343 142//344 123//345
f 150//346 10//347 142//348
f 137//349 136//350 4//351
f 150//352 137//353 4//354
f 4//355 28//356 150//357
f 10//358 150//359 28//360
f 8//361 10//362 28//363
f 19//364 4//365 136//366
f 20//367 19//368 136//369
f 136//370 141//371 20//372
f 23//373 20//374 141//375
f 141//376 134//377 23//378
f 119//379 23//380 134//381
f 119//382 134//383 151//384
f 56//385 67//386 8//387
f 8//388 9//389 56//390
f 63//391 56//392 9//393
f 9//394 6//395 63//396
f 58//397 63//398 6//399
f 6//400 7//401 58//402
f 61//403 58//404 7//405
f 7//406 107//407 61//408
f 30//409 61//410 107//411
f 31//412 30//413 107//414
f 10//415 8//416 67//417
f 67//418 48//419 10//420
f 11//421 10//422 86//423
f 86//424 73//425 11//426
f 12//427 11//428 73//429
f 73//430 72//431 12//432
f 13//433 12//434 72//435
f 72//436 77//437 13//438
f 14//439 13//440 77//441
f 77//442 70//443 14//444
f 15//445 14//446 70//447
f 15//448 70//449 152//450
